<svg xmlns="http://www.w3.org/2000/svg" width="16.444" height="14.588" viewBox="0 0 16.444 14.588">
  <path id="Icon_ionic-md-heart-empty" data-name="Icon ionic-md-heart-empty" d="M12.661,18.7l-.19.177-.39.353-.39-.353L11.5,18.7a57.589,57.589,0,0,1-5.559-5.528A6.648,6.648,0,0,1,4.112,9,3.769,3.769,0,0,1,5.186,6.313,3.687,3.687,0,0,1,7.841,5.235a4.155,4.155,0,0,1,3.131,1.472l1.11,1.318,1.11-1.318a4.14,4.14,0,0,1,3.131-1.472,3.705,3.705,0,0,1,2.66,1.078A3.776,3.776,0,0,1,20.056,9a6.682,6.682,0,0,1-1.83,4.177A57.705,57.705,0,0,1,12.661,18.7Z" transform="translate(-3.862 -4.985)" fill="#ff4040" stroke="#ff4040" stroke-width="0.5"/>
</svg>
