<svg xmlns="http://www.w3.org/2000/svg" width="21.667" height="20" viewBox="0 0 21.667 20">
  <g id="Icon_ionic-md-wallet" data-name="Icon ionic-md-wallet" transform="translate(-3.375 -4.5)">
    <path id="Path_3473" data-name="Path 3473" d="M11.482,18.943V10.057a2.23,2.23,0,0,1,2.238-2.224H24.042V6.724A2.222,2.222,0,0,0,21.826,4.5H5.681A2.259,2.259,0,0,0,3.375,6.687V22.313A2.259,2.259,0,0,0,5.681,24.5h16.14a2.218,2.218,0,0,0,2.217-2.224V21.167H13.714A2.228,2.228,0,0,1,11.482,18.943Z" transform="translate(0 0)" fill="#0ba9b3"/>
    <path id="Path_3474" data-name="Path 3474" d="M17.227,12.693v6.476a.742.742,0,0,0,.74.74h8.65a.742.742,0,0,0,.74-.74V12.693a.742.742,0,0,0-.74-.74h-8.65A.742.742,0,0,0,17.227,12.693Zm3.566,4.714a1.481,1.481,0,1,1,1.383-1.383A1.481,1.481,0,0,1,20.793,17.407Z" transform="translate(-2.315 -1.431)" fill="#0ba9b3"/>
  </g>
</svg>
