<svg xmlns="http://www.w3.org/2000/svg" width="15.979" height="20" viewBox="0 0 15.979 20">
  <g id="Icon_ionic-ios-notifications-outline" data-name="Icon ionic-ios-notifications-outline" transform="translate(-6.775 -3.93)">
    <path id="Path_3488" data-name="Path 3488" d="M19.205,28.336a.724.724,0,0,0-.71.57,1.4,1.4,0,0,1-.279.609,1.056,1.056,0,0,1-.9.33,1.074,1.074,0,0,1-.9-.33,1.4,1.4,0,0,1-.279-.609.724.724,0,0,0-.71-.57h0a.729.729,0,0,0-.71.888,2.5,2.5,0,0,0,2.6,2.073,2.492,2.492,0,0,0,2.6-2.073.731.731,0,0,0-.71-.888Z" transform="translate(-2.566 -7.367)" fill="#0ba9b3"/>
    <path id="Path_3489" data-name="Path 3489" d="M22.553,18.359c-.77-.989-2.284-1.568-2.284-5.995,0-4.543-2.059-6.37-3.979-6.808-.18-.044-.31-.1-.31-.287V5.128a1.21,1.21,0,0,0-1.2-1.2h-.03a1.21,1.21,0,0,0-1.2,1.2V5.27c0,.18-.13.243-.31.287C11.316,6,9.262,7.821,9.262,12.365c0,4.427-1.515,5-2.284,5.995a.965.965,0,0,0,.795,1.549h14A.966.966,0,0,0,22.553,18.359Zm-1.95.282H8.947a.213.213,0,0,1-.165-.355,5.882,5.882,0,0,0,1.05-1.626,10.78,10.78,0,0,0,.715-4.3,7.318,7.318,0,0,1,1.045-4.227,3.21,3.21,0,0,1,1.935-1.344,1.763,1.763,0,0,0,.93-.511.4.4,0,0,1,.595-.01,1.823,1.823,0,0,0,.94.521,3.21,3.21,0,0,1,1.935,1.344,7.318,7.318,0,0,1,1.045,4.227,10.78,10.78,0,0,0,.715,4.3,5.951,5.951,0,0,0,1.075,1.651A.2.2,0,0,1,20.6,18.642Z" transform="translate(0 0)" fill="#0ba9b3"/>
  </g>
</svg>
