<svg xmlns="http://www.w3.org/2000/svg" width="44.127" height="44.178" viewBox="0 0 44.127 44.178">
  <path id="Path_3521" data-name="Path 3521" d="M501.8,130.868a29.594,29.594,0,0,1,5.9,4.526l-2.161,2.434c-.043.051-.072.069-.117.125a1.246,1.246,0,0,1-.114.128c-.049.054-.056.077-.11.132l-1.013,1.164c-.563.632-1.39,1.627-1.889,2.245a16.943,16.943,0,0,0-1.018,1.4l-.362.606c-.066.112-.117.212-.18.318a3.405,3.405,0,0,0-1.171.135c-.454.147-.27.173-.624-.128l-1-.87a1.206,1.206,0,0,1-.181-.165,2.056,2.056,0,0,0,.016-.352c-.054-.4-.214-.464-.567-.621-.334-.148-.354-.173-.313-.443.216-1.411-.6-.968-.847-1.411-.107-.2,0-.456.033-.654.133-.734-.665-.781-.916-.991-.222-.188.138-.491-.135-.965a1.088,1.088,0,0,0-1.087-.445,2.036,2.036,0,0,0-.588.2l-1.1.484a.469.469,0,0,0-.224-.479.791.791,0,0,0-.545-.148l-.578-.664c-1.276-1.433-3.381-5.79-4.371-7.658,3.551-.295,4.993-.845,8.824-.2a15.976,15.976,0,0,1,6.433,2.3Zm-13.732,9.078a2.66,2.66,0,0,0-.161.9c-.119.028-.792.394-.9.418-.273-.2-.7-.56-1.113-.216a.933.933,0,0,0-.2.2.988.988,0,0,1-.208.189c-.3.2-.848-.618-1.443-.147-.15.119-.245.306-.426.387a.407.407,0,0,1-.331-.01,2.709,2.709,0,0,1-.239-.156,1.051,1.051,0,0,0-.278-.14c-.7-.217-.868.748-1.286.6a1.021,1.021,0,0,0-.924-.17,1.216,1.216,0,0,0-.644.962,4.266,4.266,0,0,0,.036.739c0,.064,0,.133,0,.2.007.082.018.076.021.176,0,.161.021.245.021.4a.644.644,0,0,0-.547.069.742.742,0,0,0-.293.436,2.424,2.424,0,0,0-.241.086c-.42.152-.828.333-1.26.455a10.307,10.307,0,0,1-1.68.364c-1.276.178-2.357.292-3.7.394-.4.031-.851.076-1.257.107l-.481.025c-.082.007-.063.016-.155.021l-.5.023c-.069,0-.079.02-.155.021a2.443,2.443,0,0,0,.076-.343c.025-.125.051-.24.072-.344.049-.235.1-.453.16-.677a22.257,22.257,0,0,1,1.052-3.147,21.671,21.671,0,0,1,1.423-2.8c.173-.288.627-1.011.83-1.281l.529-.721a.034.034,0,0,0,.008-.012,11.173,11.173,0,0,0,.838-.9c.036-.046.068-.067.109-.112l.308-.352c.085-.084.127-.15.209-.231l1.253-1.364a7.875,7.875,0,0,1,.684-.636c.081-.066.156-.122.235-.183l1.26-.939c.091-.068.173-.114.26-.18s.171-.12.26-.18c.412-.275,1.154-.725,1.634-.982a5.874,5.874,0,0,1,.586-.293l1.793,2.89c.041.063.066.094.1.16.3.512,1.046,1.642,1.36,2.113l.6.9c.283.427.707,1.071,1.021,1.462.04.049.066.081.107.135l.451.539a12.16,12.16,0,0,0,1.123,1.148Zm-7.719,9.125a8.683,8.683,0,0,0,1.019.514c.025.015.048.012.064.089l.2,2.085c.02.156.013.293.034.45l.082.868c-.26.184-.634.514-.55.894.112.507.586.576.236.985-.227.265-.548.627-.346,1.019.082.16.222.295.288.459.128.321-.2.519-.292.611a1.3,1.3,0,0,0-.087.11.714.714,0,0,0-.137.237c-.143.405.308.776.4,1.023s-.143.343-.237.486a.955.955,0,0,0,.534,1.395,1.523,1.523,0,0,0,.283.091,2.82,2.82,0,0,0,.346.049c-.148.221-.246.32-.087.641l-.069.565c-.148,1.238-1.177,4.923-1.533,6.141l-.443,1.492c-.176-.094-.342-.2-.506-.308a23.5,23.5,0,0,1-2.357-1.734l-.761-.669c-.041-.038-.069-.069-.11-.11-.143-.143-.275-.252-.418-.4L474.82,164.9c-.04-.051-.061-.066-.1-.117a21.38,21.38,0,0,1-1.436-1.863c-.03.02-.04.026-.071.044l-1.291-2.507c-.4-.789-.838-1.81-1.174-2.652a17.291,17.291,0,0,1-.909-2.9c-.112-.525-.28-1.474-.333-2.042-.035-.362-.112-1.018-.112-1.339.234,0,2.686-.4,2.912-.43.5-.076.949-.155,1.436-.235a25.557,25.557,0,0,0,5.41-1.3l.593-.244c.206-.092.408-.165.606-.257Zm6.261,12.627a3.605,3.605,0,0,0,1.206-.515c.229-.156.8-.651.861-.876a3.612,3.612,0,0,1,.441.043l1.362.15a1.279,1.279,0,0,0,.379.879c.51.512.991-.165,1.255.132.14.156.283.547.571.7s.382.084.667,0,.446-.1.593.127c.229.351.295.822.94.682a2.92,2.92,0,0,0,.329-.089c.4-.132.423-.036.548.2.272.517.853.573,1.4.183a1.228,1.228,0,0,0,.38-.476c.086-.173.54-1.049.565-1.151.115.031.127.176.4.216a.765.765,0,0,0,.514-.105l1.182.3c.1.03.178.063.259.092l2.819,1.271.484.242c.389.194,1.863.952,2.179,1.141l1.222.647a10.689,10.689,0,0,1-.995,1.006c-.043.043-.076.081-.12.12a24.506,24.506,0,0,1-2.082,1.68l-1.034.7c-.063.041-.094.066-.16.1l-.932.563a22.985,22.985,0,0,1-2.335,1.161c-.244.1-.469.2-.716.295l-1.4.492c-.082.035-.036-.012-.079.064l-1.069.242c-.123.028-.245.064-.359.081l-2.685.372c-.133,0-.272.012-.417.023a21.908,21.908,0,0,1-7.492-.822c-.132-.038-.231-.072-.359-.1.071-.148.939-4.634.962-4.756a31.358,31.358,0,0,0,.71-5.025Zm13.458-4.228a3.16,3.16,0,0,0-.219-.595c-.028-.053-.043-.069-.074-.125a1.194,1.194,0,0,0-.072-.125l-.079-.119c-.127-.183-.107-.1.107-.562.028-.059.036-.094.066-.155.1-.2.176-.394.272-.586l.542-1.166a2.734,2.734,0,0,0,.359.045c.405,0,.919-.184.924-.683,0-.148.023-.212.021-.375-.007-.5.522-.181.975-.631a.449.449,0,0,0,.156-.239c.114-.441-.132-.708.268-.9.194-.092.454-.074.637-.176.713-.4-.063-1.227.641-1.36a.765.765,0,0,0,.3-.1A1.046,1.046,0,0,0,504.92,148c-.173-.171-.774-.715-.83-.8a.286.286,0,0,0,.257-.183.832.832,0,0,0,.03-.39,9.116,9.116,0,0,1,.667-.98c.133-.157.246-.3.384-.451l.285-.331c.041-.043.071-.068.11-.109l4.145-4.167c.2-.168.278-.275.428-.407,1.367-1.207,2.828,6.632,2.936,7.454.026.2.071.494.081.711l.048.744c.023.2.008.456.04.664a4.075,4.075,0,0,1-.041.926c-.062.8-.191,1.644-.319,2.408-.089.53-.193,1.011-.3,1.507l-.356,1.469c-.067.231-.128.468-.2.7s-.151.471-.212.688c-.068.245-.152.443-.227.674s-.158.453-.249.675c-.158.39-.631,1.533-.843,1.882-.1.168-.206.4-.334.59l-1.224-.535c-.412-.193-.825-.362-1.239-.543l-4.376-1.8a14.885,14.885,0,0,0-2.021-.639c-.166-.035-1.346-.28-1.5-.283Zm-12.48-11.676.738-.329c.084-.041.158-.084.249-.125s.152-.064.242-.11a7.809,7.809,0,0,1,.739-.338,1.558,1.558,0,0,0,.367.359,3.059,3.059,0,0,0,.453.295,2.926,2.926,0,0,0,2.91-.089l.514-.237a2.4,2.4,0,0,0,.29.264l1.015.9c.063.064.092.077.153.132.165.147.735.667.9.776a3.07,3.07,0,0,0-.119,2.23,2.7,2.7,0,0,0,.817,1.207l.357.321-.945,2.026c-.03.066-.061.12-.1.191l-.476,1.041a3.1,3.1,0,0,0-1.214.084,3.019,3.019,0,0,0-2.08,1.985l-1.462-.191c-.3-.039-1.285-.14-1.467-.183a2.714,2.714,0,0,0-.389-1.062,2.888,2.888,0,0,0-1.67-1.276c-.384-.105-.879-.125-1.261-.2a3.86,3.86,0,0,1-.044-.494c-.012-.369-.115-1.122-.132-1.5-.016-.392-.176-1.7-.176-2a2.912,2.912,0,0,0,1.359-1.082,2.978,2.978,0,0,0,.466-2.261c0-.064-.018-.257-.033-.329Z" transform="translate(-469.39 -128.274)" fill="#0ba9b3" fill-rule="evenodd"/>
</svg>
