<svg id="Star" xmlns="http://www.w3.org/2000/svg" xmlns:xlink="http://www.w3.org/1999/xlink" width="20" height="20" viewBox="0 0 20 20">
  <defs>
    <radialGradient id="radial-gradient" cx="0.5" cy="0.5" r="0.5" gradientUnits="objectBoundingBox">
      <stop offset="0" stop-color="#0ba9b3"/>
      <stop offset="1" stop-color="#0c6575"/>
    </radialGradient>
  </defs>
  <g id="group-28" transform="translate(0 0)">
    <g id="ellipse-27" transform="translate(0)" fill="rgba(255,255,255,0.92)">
      <path d="M 10 19.5 C 4.761680126190186 19.5 0.5 15.23832035064697 0.5 10 C 0.5 4.761680126190186 4.761680126190186 0.5 10 0.5 C 15.23832035064697 0.5 19.5 4.761680126190186 19.5 10 C 19.5 15.23832035064697 15.23832035064697 19.5 10 19.5 Z" stroke="none"/>
      <path d="M 10 1 C 5.037380218505859 1 1 5.037380218505859 1 10 C 1 14.96261978149414 5.037380218505859 19 10 19 C 14.96261978149414 19 19 14.96261978149414 19 10 C 19 5.037380218505859 14.96261978149414 1 10 1 M 10 0 C 15.52285003662109 0 20 4.477149963378906 20 10 C 20 15.52285003662109 15.52285003662109 20 10 20 C 4.477149963378906 20 0 15.52285003662109 0 10 C 0 4.477149963378906 4.477149963378906 0 10 0 Z" stroke="none" fill="#0ba9b3"/>
    </g>
  </g>
  <g id="group" transform="translate(4.992 5.134)">
    <g id="group-2" data-name="group" transform="translate(0 0)">
      <path id="path" d="M9.5,3.256,6.759,3.007a.4.4,0,0,1-.374-.291l-1-2.41a.48.48,0,0,0-.873,0L3.559,2.674a.5.5,0,0,1-.416.291L.4,3.256a.466.466,0,0,0-.249.831L2.229,5.916a.494.494,0,0,1,.166.457L1.772,8.908a.46.46,0,0,0,.706.5l2.286-1.33a.53.53,0,0,1,.5,0l2.286,1.33a.476.476,0,0,0,.706-.5L7.632,6.373A.415.415,0,0,1,7.8,5.916L9.876,4.087A.538.538,0,0,0,9.5,3.256Z" transform="translate(0.026 -0.025)" fill="url(#radial-gradient)"/>
    </g>
  </g>
</svg>
