<svg xmlns="http://www.w3.org/2000/svg" width="41.006" height="27" viewBox="0 0 41.006 27">
  <g id="Icon_ionic-ios-people" data-name="Icon ionic-ios-people" transform="translate(0.5 0.5)">
    <path id="Path_3622" data-name="Path 3622" d="M28.916,27.752c-1-.356-2.628-.374-3.35-.65a4.733,4.733,0,0,1-1.55-.722,9.58,9.58,0,0,1-.258-2.539,4.1,4.1,0,0,0,.882-1.247,13.863,13.863,0,0,0,.428-2.45s.588.249.82-.927c.2-1.016.57-1.55.472-2.3s-.517-.57-.517-.57.517-.757.517-3.332c0-2.655-2-5.266-5.756-5.266s-5.765,2.62-5.765,5.266c0,2.575.508,3.332.508,3.332s-.419-.178-.517.57.267,1.283.472,2.3c.232,1.185.82.927.82.927a14,14,0,0,0,.428,2.45,4.1,4.1,0,0,0,.882,1.247,9.58,9.58,0,0,1-.258,2.539,4.555,4.555,0,0,1-1.55.713c-.713.276-2.343.312-3.35.668a6.288,6.288,0,0,0-4.081,5.988h24.8A6.276,6.276,0,0,0,28.916,27.752Z" transform="translate(-0.618 -7.748)" fill="none" stroke="#b4b4b4" stroke-width="1"/>
    <path id="Path_3623" data-name="Path 3623" d="M11.882,22.488a6.049,6.049,0,0,0,2.976-.829c-1.381-2.094-.633-4.535-.918-6.816A3.759,3.759,0,0,0,9.78,11.208H9.744a3.771,3.771,0,0,0-4.125,3.635c-.285,2.272.508,4.99-.909,6.816.846.766,2.985.74,2.985.74h0a4.513,4.513,0,0,1-.089,1.5,2.25,2.25,0,0,1-1.069.49,20.673,20.673,0,0,0-2.308.642,3.751,3.751,0,0,0-2.014,3.315H9.37a6.4,6.4,0,0,1,2.851-2.655,5.983,5.983,0,0,1,2.2-.463s.339-.535-.775-.74a7.6,7.6,0,0,1-1.711-.6C11.766,23.691,11.882,22.488,11.882,22.488Z" transform="translate(-2.215 -6.824)" fill="none" stroke="#b4b4b4" stroke-width="1"/>
    <path id="Path_3624" data-name="Path 3624" d="M26.784,22.488a6.049,6.049,0,0,1-2.976-.829c1.381-2.094.633-4.535.918-6.816a3.759,3.759,0,0,1,4.161-3.635h.036a3.771,3.771,0,0,1,4.125,3.635c.285,2.272-.508,4.99.909,6.816-.846.766-2.985.74-2.985.74h0a4.512,4.512,0,0,0,.089,1.5,2.25,2.25,0,0,0,1.069.49,20.674,20.674,0,0,1,2.308.642,3.751,3.751,0,0,1,2.014,3.315H29.3a6.4,6.4,0,0,0-2.851-2.655,5.983,5.983,0,0,0-2.2-.463s-.339-.535.775-.74a7.6,7.6,0,0,0,1.711-.6C26.9,23.691,26.784,22.488,26.784,22.488Z" transform="translate(3.555 -6.824)" fill="none" stroke="#b4b4b4" stroke-width="1"/>
  </g>
</svg>
